<svg xmlns="http://www.w3.org/2000/svg" viewBox="0 0 200 200" width="200" height="200">
  <!-- Icon-only version for favicon and small uses -->

  <!-- Background circle -->
  <circle cx="100" cy="100" r="95" fill="#2c3e50" stroke="#34495e" stroke-width="3"/>

  <!-- Barrel/Cask shape -->
  <g transform="translate(100, 100)">
    <!-- Barrel body -->
    <path d="M -35 -50 Q -45 -25, -45 0 Q -45 25, -35 50 L 35 50 Q 45 25, 45 0 Q 45 -25, 35 -50 Z"
          fill="#8b4513" stroke="#654321" stroke-width="2"/>

    <!-- Barrel hoops -->
    <ellipse cx="0" cy="-37" rx="42" ry="5" fill="#7f8c8d" opacity="0.9"/>
    <ellipse cx="0" cy="0" rx="45" ry="6" fill="#95a5a6" opacity="0.9"/>
    <ellipse cx="0" cy="37" rx="42" ry="5" fill="#7f8c8d" opacity="0.9"/>

    <!-- Wood grain -->
    <line x1="-30" y1="-50" x2="-30" y2="50" stroke="#654321" stroke-width="1" opacity="0.4"/>
    <line x1="-15" y1="-50" x2="-15" y2="50" stroke="#654321" stroke-width="1" opacity="0.4"/>
    <line x1="0" y1="-50" x2="0" y2="50" stroke="#654321" stroke-width="1" opacity="0.4"/>
    <line x1="15" y1="-50" x2="15" y2="50" stroke="#654321" stroke-width="1" opacity="0.4"/>
    <line x1="30" y1="-50" x2="30" y2="50" stroke="#654321" stroke-width="1" opacity="0.4"/>

    <!-- Barrel tap -->
    <circle cx="0" cy="0" r="8" fill="#34495e"/>
    <rect x="-1" y="-3" width="12" height="6" rx="1" fill="#34495e"/>
    <rect x="10" y="-2" width="5" height="4" rx="1" fill="#7f8c8d"/>
  </g>

  <!-- Watch element -->
  <g transform="translate(150, 50)">
    <circle cx="0" cy="0" r="18" fill="#ecf0f1" stroke="#34495e" stroke-width="2"/>
    <line x1="0" y1="0" x2="0" y2="-10" stroke="#e74c3c" stroke-width="2" stroke-linecap="round"/>
    <line x1="0" y1="0" x2="7" y2="3" stroke="#34495e" stroke-width="1.5" stroke-linecap="round"/>
    <circle cx="0" cy="0" r="2" fill="#e74c3c"/>
  </g>
</svg>
